<?xml version="1.0" encoding="utf-8"?>
<!-- Generator: Adobe Illustrator 26.0.1, SVG Export Plug-In . SVG Version: 6.00 Build 0)  -->
<svg version="1.1" id="Layer_1" xmlns="http://www.w3.org/2000/svg" xmlns:xlink="http://www.w3.org/1999/xlink" x="0px" y="0px"
	 viewBox="0 0 406.9 126.3" style="enable-background:new 0 0 406.9 126.3;" xml:space="preserve">
<style type="text/css">
	.st0{fill:#2D32AA;}
</style>
<g>
	<rect x="372.4" y="7.4" class="st0" width="28.6" height="113.4"/>
	<path class="st0" d="M60,4.2c-27.4,0-55.8,9.6-55.8,9.6v107h29.7v-87c0,0,10.6-4.4,26.1-4.4c19.2,0,27.2,10.5,27.2,26.7
		c0,2,0,64.8,0,64.8h29.3c0-1.6,0-63.2,0-64.8C116.4,21,100.2,4.2,60,4.2z"/>
	<path class="st0" d="M364.2,7.4h-35.4L302,40.6l-14.7-18.5c-7.4-9.3-19.3-14.7-31.2-14.7h-17.4l44.8,56.1l-46.3,57.2h35.1
		l28.7-35.3l16.5,20.7c7.4,9.2,19.3,14.6,31.1,14.6h17.2l-46.3-58.2L364.2,7.4z"/>
	<path class="st0" d="M242.4,99.1L223,83.4c-6.1,7.2-16.6,15.7-33.7,15.7c-13.3,0-25.5-7.4-31.1-19.6l87.1-15.3
		c0-8.5-1.7-16.6-4.7-23.9C231.7,18.9,211.2,4,186.3,4c-33.5,0-59.1,23.8-59.1,60.1c0,34.9,25.1,60.1,62.2,60.1
		C217,124.3,233.7,109.9,242.4,99.1z M186.3,28.5c12.9,0,23.6,6,28,16.3l-58.4,10.3C159,38,171.2,28.5,186.3,28.5z"/>
</g>
</svg>
